<?xml version="1.0" encoding="UTF-8" standalone="no"?>
<!DOCTYPE svg PUBLIC "-//W3C//DTD SVG 1.1//EN" "http://www.w3.org/Graphics/SVG/1.1/DTD/svg11.dtd">
<svg width="100%" height="100%" viewBox="0 0 854 240" version="1.1" xmlns="http://www.w3.org/2000/svg" xmlns:xlink="http://www.w3.org/1999/xlink" xml:space="preserve" xmlns:serif="http://www.serif.com/" style="fill-rule:evenodd;clip-rule:evenodd;">
    <g>
        <path d="M71.42,57.57C71.42,50.976 65.994,45.55 59.4,45.55C52.806,45.55 47.38,50.976 47.38,57.57C47.38,64.164 52.806,69.59 59.4,69.59C65.994,69.59 71.42,64.164 71.42,57.57" style="fill:none;fill-rule:nonzero;stroke:rgb(172,235,232);stroke-width:2px;"/>
        <path d="M416.68,77.51C416.6,77.537 415.583,77.583 413.63,77.65C408.803,77.817 405.95,80.077 405.07,84.43C403.857,90.437 405.683,94.387 410.55,96.28C412.28,96.96 414.79,96.68 416.62,96.72C416.962,96.731 417.236,97.018 417.23,97.36C417.163,112.84 417.16,127.223 417.22,140.51C417.26,148.57 418.83,157.21 424.22,162.57C430.87,169.18 439.91,170.56 449.3,169.56C454.27,169.03 458.24,166.2 458.67,161.15C459.04,156.84 456.38,150.93 451.6,150.65C443.07,150.16 437.68,151.41 437.64,140.24C437.607,131.64 437.597,117.34 437.61,97.34C437.61,97.34 437.61,97.34 437.61,97.34C437.61,96.983 437.903,96.69 438.26,96.69C438.267,96.69 438.273,96.69 438.28,96.69C441.913,96.783 445.55,96.77 449.19,96.65C456.22,96.41 458.93,91.19 457.87,84.8C456.75,78.11 451.3,77.46 445.23,77.57C442.117,77.617 439.77,77.623 438.19,77.59C437.878,77.58 437.625,77.327 437.62,77.02C437.62,77.007 437.623,70.29 437.63,56.87C437.63,49.31 434.023,45.633 426.81,45.84C422.963,45.953 420.203,47.45 418.53,50.33C417.57,51.977 417.11,55.173 417.15,59.92C417.23,71.007 417.263,76.637 417.25,76.81C417.22,77.137 416.994,77.414 416.68,77.51" style="fill:none;fill-rule:nonzero;stroke:rgb(156,156,156);stroke-width:2px;"/>
        <path d="M504.329,77.113C479.161,76.849 458.231,97.717 457.962,123.34C457.694,148.963 478.183,170.264 503.351,170.527C528.519,170.791 549.449,149.923 549.717,124.3C549.986,98.677 529.497,77.376 504.329,77.113" style="fill:none;fill-rule:nonzero;stroke:rgb(156,156,156);stroke-width:2px;"/>
        <path d="M152.82,168.29C157.55,165.54 157.57,160.92 157.6,155C157.707,133.62 157.677,120.46 157.51,115.52C157.1,103.66 152.41,91.01 142.4,84.16C136.507,80.133 130.137,77.897 123.29,77.45C113.35,76.81 104.57,78.37 96.62,83.84C85.65,91.39 80.37,104.03 80.17,117.5C80.077,123.733 80.053,137.067 80.1,157.5C80.11,162.22 81.21,166.53 85.52,168.7C90.59,171.24 97.35,169.29 99.76,163.98C100.467,162.42 100.803,159.207 100.77,154.34C100.643,137.267 100.663,124.577 100.83,116.27C101.33,90.35 136.94,91.01 137.03,116.77C137.117,139.683 137.14,152.26 137.1,154.5C137.027,158.56 137.24,161.39 137.74,162.99C139.72,169.36 147.4,171.45 152.82,168.29" style="fill:none;fill-rule:nonzero;stroke:rgb(172,235,232);stroke-width:2px;"/>
        <path d="M259.75,131.8C264.397,131.733 279.7,131.723 305.66,131.77C310.553,131.777 313.833,131.283 315.5,130.29C318.573,128.443 320.113,125.27 320.12,120.77C320.15,95.63 303.93,75.83 277.58,77.34C246.91,79.11 233.2,110.7 240.01,137.26C244.8,155.95 259.79,169.15 279.26,170.52C290.7,171.327 300.973,168.177 310.08,161.07C312.333,159.317 313.877,157.61 314.71,155.95C317.12,151.14 315.12,144.32 309.71,142.79C302.02,140.61 298.98,147.41 293.32,149.56C277.64,155.52 263.27,148.51 259.26,132.44C259.256,132.421 259.252,132.403 259.25,132.384C259.214,132.101 259.413,131.839 259.691,131.804C259.71,131.801 259.73,131.8 259.75,131.8" style="fill:none;fill-rule:nonzero;stroke:rgb(172,235,232);stroke-width:2px;"/>
        <path d="M365.53,97.23C374.19,97.25 380.52,102.22 382.82,110.52C383.433,112.713 383.73,115.723 383.71,119.55C383.703,121.357 383.677,134.1 383.63,157.78C383.62,162.62 384.71,166.41 388.86,168.63C394.85,171.85 403.57,168.56 403.92,160.99C404.273,153.183 404.293,137.99 403.98,115.41C403.67,93.03 388.04,77.24 365.56,77.21C343.09,77.18 327.41,92.92 327.04,115.3C326.667,137.88 326.647,153.077 326.98,160.89C327.31,168.46 336.02,171.77 342.02,168.57C346.17,166.36 347.27,162.57 347.27,157.73C347.29,134.05 347.3,121.307 347.3,119.5C347.287,115.673 347.59,112.663 348.21,110.47C350.54,102.18 356.88,97.22 365.53,97.23" style="fill:none;fill-rule:nonzero;stroke:rgb(172,235,232);stroke-width:2px;"/>
        <path d="M199.47,169.69C203.79,169.69 207.99,167.93 210.06,164.02C210.627,162.96 211.423,161.15 212.45,158.59C213.597,155.717 221.803,135.397 237.07,97.63C238.937,92.997 239.883,89.79 239.91,88.01C240.06,77.16 224.19,74.06 220.35,83.9C210.83,108.267 204,125.903 199.86,136.81C199.78,137.023 199.647,137.13 199.46,137.13C199.28,137.13 199.15,137.023 199.07,136.81C194.923,125.903 188.087,108.27 178.56,83.91C174.72,74.07 158.85,77.18 159,88.03C159.027,89.81 159.973,93.013 161.84,97.64C177.127,135.407 185.343,155.723 186.49,158.59C187.517,161.15 188.313,162.963 188.88,164.03C190.95,167.93 195.15,169.69 199.47,169.69" style="fill:none;fill-rule:nonzero;stroke:rgb(172,235,232);stroke-width:2px;"/>
        <path d="M611.65,114.8C611.77,114.8 611.86,114.893 611.92,115.08C616.227,129.493 620.663,144.15 625.23,159.05C627.09,165.12 628.99,168.83 635.29,169.62C642.257,170.5 646.847,167.72 649.06,161.28C661.173,125.987 668.827,103.98 672.02,95.26C674.11,89.56 674.94,83.38 669.12,79.68C664.16,76.52 656.05,77.56 653.86,83.93C649.427,96.83 643.983,113.19 637.53,133.01C637.482,133.159 637.343,133.26 637.187,133.26C637.08,133.26 636.978,133.212 636.91,133.13L636.74,132.93C636.733,132.917 636.727,132.9 636.72,132.88C631.64,115.1 626.947,99.357 622.64,85.65C621.04,80.55 616.89,77.96 611.64,77.96C606.39,77.96 602.25,80.55 600.65,85.65C596.35,99.363 591.667,115.11 586.6,132.89C586.593,132.91 586.587,132.927 586.58,132.94L586.41,133.14C586.342,133.222 586.24,133.27 586.133,133.27C585.977,133.27 585.838,133.169 585.79,133.02C579.323,113.207 573.87,96.85 569.43,83.95C567.24,77.58 559.13,76.55 554.17,79.71C548.35,83.41 549.18,89.59 551.28,95.29C554.473,104.01 562.137,126.013 574.27,161.3C576.49,167.74 581.083,170.517 588.05,169.63C594.35,168.84 596.24,165.13 598.1,159.06C602.66,144.153 607.09,129.493 611.39,115.08C611.443,114.893 611.53,114.8 611.65,114.8" style="fill:none;fill-rule:nonzero;stroke:rgb(156,156,156);stroke-width:2px;"/>
        <path d="M722.5,94.73C727.89,88.08 724.36,78.04 715.32,77.93C694.05,77.67 678.77,93.87 678.52,114.77C678.34,129.67 678.363,144.9 678.59,160.46C678.637,163.873 680.113,166.467 683.02,168.24C687.03,170.69 693.22,170.34 696.34,166.63C698.087,164.563 698.96,162.423 698.96,160.21C698.953,132.837 698.983,117.783 699.05,115.05C699.25,106.883 702.803,101.327 709.71,98.38C713.76,96.65 719.45,98.48 722.5,94.73" style="fill:none;fill-rule:nonzero;stroke:rgb(156,156,156);stroke-width:2px;"/>
        <path d="M787.63,163.94C787.676,163.915 787.728,163.901 787.78,163.901C787.95,163.901 788.089,164.04 788.09,164.21C788.1,173.14 781.82,180.93 773,182.22C765.2,183.353 758.923,181.22 754.17,175.82C753.87,175.48 752.707,173.893 750.68,171.06C746.91,165.79 737.8,165.87 734.58,171.95C734.35,172.384 734.307,172.89 734.46,173.35C735.153,175.49 735.803,177.82 736.41,180.34C736.843,182.147 737.73,183.76 739.07,185.18C740.99,187.21 744.31,191.65 747.53,194.05C756.05,200.41 766.79,204.08 777.31,201.8C797.39,197.45 808.83,180.8 808.86,160.76C808.913,123.867 808.903,99.79 808.83,88.53C808.77,79.99 801.61,75.86 794.04,78.88C790.213,80.407 788.303,83.697 788.31,88.75C788.323,104.457 788.317,117.71 788.29,128.51C788.26,138.22 783.49,145.71 774.09,147.52C770.277,148.253 767.01,148.137 764.29,147.17C752.55,143.03 751.3,134.35 751.58,122.34C751.66,119.12 751.637,107.437 751.51,87.29C751.45,76.75 736.53,74.7 732.3,83.12C731.433,84.853 731.057,88.207 731.17,93.18C731.337,100.127 731.337,109.127 731.17,120.18C731.03,129.773 731.433,136.29 732.38,139.73C734.927,148.977 740.393,156.48 748.78,162.24C759.77,169.78 775.97,170.74 787.63,163.94" style="fill:none;fill-rule:nonzero;stroke:rgb(156,156,156);stroke-width:2px;"/>
        <path d="M69.67,87.68C69.67,82.414 65.336,78.08 60.07,78.08L58.91,78.08C53.644,78.08 49.31,82.414 49.31,87.68L49.31,160.06C49.31,165.326 53.644,169.66 58.91,169.66L60.07,169.66C65.336,169.66 69.67,165.326 69.67,160.06L69.67,87.68" style="fill:none;fill-rule:nonzero;stroke:rgb(172,235,232);stroke-width:2px;"/>
        <path d="M503.531,97.121C489.719,97.266 478.478,109.406 478.631,124.014C478.784,138.622 490.276,150.523 504.089,150.379C517.901,150.234 529.142,138.094 528.989,123.486C528.836,108.878 517.344,96.977 503.531,97.121" style="fill:none;fill-rule:nonzero;stroke:rgb(156,156,156);stroke-width:2px;"/>
        <path d="M260.02,114.99L299.04,114.99C299.05,114.99 299.06,114.99 299.07,114.989C299.399,114.974 299.657,114.687 299.641,114.353C299.641,114.345 299.641,114.338 299.64,114.33C298.79,104.41 292.34,95.96 281.95,95.17C269.56,94.24 261.58,102.76 259.42,114.26C259.412,114.3 259.408,114.34 259.408,114.38C259.408,114.715 259.683,114.99 260.018,114.99C260.019,114.99 260.019,114.99 260.02,114.99" style="fill:none;fill-rule:nonzero;stroke:rgb(172,235,232);stroke-width:2px;"/>
    </g>
    <circle cx="59.4" cy="57.57" r="12.02" style="fill:rgb(88,215,208);"/>
    <path d="M417.25,76.81C417.263,76.637 417.23,71.007 417.15,59.92C417.11,55.173 417.57,51.977 418.53,50.33C420.203,47.45 422.963,45.953 426.81,45.84C434.023,45.633 437.63,49.31 437.63,56.87C437.623,70.29 437.62,77.007 437.62,77.02C437.625,77.327 437.878,77.58 438.19,77.59C439.77,77.623 442.117,77.617 445.23,77.57C451.3,77.46 456.75,78.11 457.87,84.8C458.93,91.19 456.22,96.41 449.19,96.65C445.55,96.77 441.913,96.783 438.28,96.69C438.273,96.69 438.267,96.69 438.26,96.69C437.903,96.69 437.61,96.983 437.61,97.34C437.61,97.34 437.61,97.34 437.61,97.34C437.597,117.34 437.607,131.64 437.64,140.24C437.68,151.41 443.07,150.16 451.6,150.65C456.38,150.93 459.04,156.84 458.67,161.15C458.24,166.2 454.27,169.03 449.3,169.56C439.91,170.56 430.87,169.18 424.22,162.57C418.83,157.21 417.26,148.57 417.22,140.51C417.16,127.223 417.163,112.84 417.23,97.36C417.236,97.018 416.962,96.731 416.62,96.72C414.79,96.68 412.28,96.96 410.55,96.28C405.683,94.387 403.857,90.437 405.07,84.43C405.95,80.077 408.803,77.817 413.63,77.65C415.583,77.583 416.6,77.537 416.68,77.51C416.994,77.414 417.22,77.137 417.25,76.81Z" style="fill:white;fill-rule:nonzero;"/>
    <path d="M504.329,77.113C529.497,77.376 549.986,98.677 549.717,124.3C549.449,149.923 528.519,170.791 503.351,170.527C478.183,170.264 457.694,148.963 457.962,123.34C458.231,97.717 479.161,76.849 504.329,77.113ZM503.531,97.121C489.719,97.266 478.478,109.406 478.631,124.014C478.784,138.622 490.276,150.523 504.089,150.379C517.901,150.234 529.142,138.094 528.989,123.486C528.836,108.878 517.344,96.977 503.531,97.121Z" style="fill:white;fill-rule:nonzero;"/>
    <path d="M152.82,168.29C147.4,171.45 139.72,169.36 137.74,162.99C137.24,161.39 137.027,158.56 137.1,154.5C137.14,152.26 137.117,139.683 137.03,116.77C136.94,91.01 101.33,90.35 100.83,116.27C100.663,124.577 100.643,137.267 100.77,154.34C100.803,159.207 100.467,162.42 99.76,163.98C97.35,169.29 90.59,171.24 85.52,168.7C81.21,166.53 80.11,162.22 80.1,157.5C80.053,137.067 80.077,123.733 80.17,117.5C80.37,104.03 85.65,91.39 96.62,83.84C104.57,78.37 113.35,76.81 123.29,77.45C130.137,77.897 136.507,80.133 142.4,84.16C152.41,91.01 157.1,103.66 157.51,115.52C157.677,120.46 157.707,133.62 157.6,155C157.57,160.92 157.55,165.54 152.82,168.29Z" style="fill:rgb(88,215,208);fill-rule:nonzero;"/>
    <path d="M259.75,131.8C259.73,131.8 259.71,131.801 259.691,131.804C259.413,131.839 259.214,132.101 259.25,132.384C259.252,132.403 259.256,132.421 259.26,132.44C263.27,148.51 277.64,155.52 293.32,149.56C298.98,147.41 302.02,140.61 309.71,142.79C315.12,144.32 317.12,151.14 314.71,155.95C313.877,157.61 312.333,159.317 310.08,161.07C300.973,168.177 290.7,171.327 279.26,170.52C259.79,169.15 244.8,155.95 240.01,137.26C233.2,110.7 246.91,79.11 277.58,77.34C303.93,75.83 320.15,95.63 320.12,120.77C320.113,125.27 318.573,128.443 315.5,130.29C313.833,131.283 310.553,131.777 305.66,131.77C279.7,131.723 264.397,131.733 259.75,131.8ZM260.02,114.99L299.04,114.99C299.05,114.99 299.06,114.99 299.07,114.989C299.399,114.974 299.657,114.687 299.641,114.353C299.641,114.345 299.641,114.338 299.64,114.33C298.79,104.41 292.34,95.96 281.95,95.17C269.56,94.24 261.58,102.76 259.42,114.26C259.412,114.3 259.408,114.34 259.408,114.38C259.408,114.715 259.683,114.99 260.018,114.99C260.019,114.99 260.019,114.99 260.02,114.99Z" style="fill:rgb(88,215,208);fill-rule:nonzero;"/>
    <path d="M365.56,77.21C388.04,77.24 403.67,93.03 403.98,115.41C404.293,137.99 404.273,153.183 403.92,160.99C403.57,168.56 394.85,171.85 388.86,168.63C384.71,166.41 383.62,162.62 383.63,157.78C383.677,134.1 383.703,121.357 383.71,119.55C383.73,115.723 383.433,112.713 382.82,110.52C380.52,102.22 374.19,97.25 365.53,97.23C356.88,97.22 350.54,102.18 348.21,110.47C347.59,112.663 347.287,115.673 347.3,119.5C347.3,121.307 347.29,134.05 347.27,157.73C347.27,162.57 346.17,166.36 342.02,168.57C336.02,171.77 327.31,168.46 326.98,160.89C326.647,153.077 326.667,137.88 327.04,115.3C327.41,92.92 343.09,77.18 365.56,77.21Z" style="fill:rgb(88,215,208);fill-rule:nonzero;"/>
    <path d="M199.46,137.13C199.647,137.13 199.78,137.023 199.86,136.81C204,125.903 210.83,108.267 220.35,83.9C224.19,74.06 240.06,77.16 239.91,88.01C239.883,89.79 238.937,92.997 237.07,97.63C221.803,135.397 213.597,155.717 212.45,158.59C211.423,161.15 210.627,162.96 210.06,164.02C207.99,167.93 203.79,169.69 199.47,169.69C195.15,169.69 190.95,167.93 188.88,164.03C188.313,162.963 187.517,161.15 186.49,158.59C185.343,155.723 177.127,135.407 161.84,97.64C159.973,93.013 159.027,89.81 159,88.03C158.85,77.18 174.72,74.07 178.56,83.91C188.087,108.27 194.923,125.903 199.07,136.81C199.15,137.023 199.28,137.13 199.46,137.13Z" style="fill:rgb(88,215,208);fill-rule:nonzero;"/>
    <path d="M611.64,77.96C616.89,77.96 621.04,80.55 622.64,85.65C626.947,99.357 631.64,115.1 636.72,132.88C636.727,132.9 636.733,132.917 636.74,132.93L636.91,133.13C636.978,133.212 637.08,133.26 637.187,133.26C637.343,133.26 637.482,133.159 637.53,133.01C643.983,113.19 649.427,96.83 653.86,83.93C656.05,77.56 664.16,76.52 669.12,79.68C674.94,83.38 674.11,89.56 672.02,95.26C668.827,103.98 661.173,125.987 649.06,161.28C646.847,167.72 642.257,170.5 635.29,169.62C628.99,168.83 627.09,165.12 625.23,159.05C620.663,144.15 616.227,129.493 611.92,115.08C611.86,114.893 611.77,114.8 611.65,114.8C611.53,114.8 611.443,114.893 611.39,115.08C607.09,129.493 602.66,144.153 598.1,159.06C596.24,165.13 594.35,168.84 588.05,169.63C581.083,170.517 576.49,167.74 574.27,161.3C562.137,126.013 554.473,104.01 551.28,95.29C549.18,89.59 548.35,83.41 554.17,79.71C559.13,76.55 567.24,77.58 569.43,83.95C573.87,96.85 579.323,113.207 585.79,133.02C585.838,133.169 585.977,133.27 586.133,133.27C586.24,133.27 586.342,133.222 586.41,133.14L586.58,132.94C586.587,132.927 586.593,132.91 586.6,132.89C591.667,115.11 596.35,99.363 600.65,85.65C602.25,80.55 606.39,77.96 611.64,77.96Z" style="fill:white;fill-rule:nonzero;"/>
    <path d="M715.32,77.93C724.36,78.04 727.89,88.08 722.5,94.73C719.45,98.48 713.76,96.65 709.71,98.38C702.803,101.327 699.25,106.883 699.05,115.05C698.983,117.783 698.953,132.837 698.96,160.21C698.96,162.423 698.087,164.563 696.34,166.63C693.22,170.34 687.03,170.69 683.02,168.24C680.113,166.467 678.637,163.873 678.59,160.46C678.363,144.9 678.34,129.67 678.52,114.77C678.77,93.87 694.05,77.67 715.32,77.93Z" style="fill:white;fill-rule:nonzero;"/>
    <path d="M787.63,163.94C775.97,170.74 759.77,169.78 748.78,162.24C740.393,156.48 734.927,148.977 732.38,139.73C731.433,136.29 731.03,129.773 731.17,120.18C731.337,109.127 731.337,100.127 731.17,93.18C731.057,88.207 731.433,84.853 732.3,83.12C736.53,74.7 751.45,76.75 751.51,87.29C751.637,107.437 751.66,119.12 751.58,122.34C751.3,134.35 752.55,143.03 764.29,147.17C767.01,148.137 770.277,148.253 774.09,147.52C783.49,145.71 788.26,138.22 788.29,128.51C788.317,117.71 788.323,104.457 788.31,88.75C788.303,83.697 790.213,80.407 794.04,78.88C801.61,75.86 808.77,79.99 808.83,88.53C808.903,99.79 808.913,123.867 808.86,160.76C808.83,180.8 797.39,197.45 777.31,201.8C766.79,204.08 756.05,200.41 747.53,194.05C744.31,191.65 740.99,187.21 739.07,185.18C737.73,183.76 736.843,182.147 736.41,180.34C735.803,177.82 735.153,175.49 734.46,173.35C734.307,172.89 734.35,172.384 734.58,171.95C737.8,165.87 746.91,165.79 750.68,171.06C752.707,173.893 753.87,175.48 754.17,175.82C758.923,181.22 765.2,183.353 773,182.22C781.82,180.93 788.1,173.14 788.09,164.21C788.089,164.04 787.95,163.901 787.78,163.901C787.728,163.901 787.676,163.915 787.63,163.94Z" style="fill:white;fill-rule:nonzero;"/>
    <path d="M69.67,87.68L69.67,160.06C69.67,165.358 65.368,169.66 60.07,169.66L58.91,169.66C53.612,169.66 49.31,165.358 49.31,160.06L49.31,87.68C49.31,82.382 53.612,78.08 58.91,78.08L60.07,78.08C65.368,78.08 69.67,82.382 69.67,87.68Z" style="fill:rgb(88,215,208);"/>
</svg>
